<?xml version='1.0' encoding='iso-8859-1'?>
<!-- Uploaded to: SVG Repo, www.svgrepo.com, Generator: SVG Repo Mixer Tools -->
<svg fill="#000000" height="800px" width="800px" version="1.1" xmlns="http://www.w3.org/2000/svg" viewBox="0 0 463 463" xmlns:xlink="http://www.w3.org/1999/xlink" enable-background="new 0 0 463 463">
  <path d="m447.5,416h-0.5v-400.5c0-8.547-6.953-15.5-15.5-15.5h-32c-8.547,0-15.5,6.953-15.5,15.5v0.5h-305v-0.5c0-8.547-6.953-15.5-15.5-15.5h-32c-8.547,0-15.5,6.953-15.5,15.5v400.5h-0.5c-8.547,0-15.5,6.953-15.5,15.5v16c0,8.547 6.953,15.5 15.5,15.5h432c8.547,0 15.5-6.953 15.5-15.5v-16c0-8.547-6.953-15.5-15.5-15.5zm-48.5-400.5c0-0.276 0.225-0.5 0.5-0.5h32c0.275,0 0.5,0.224 0.5,0.5v400.5h-33v-400.5zm-320,400.5v-49h17v0.5c0,12.958 10.542,23.5 23.5,23.5s23.5-10.542 23.5-23.5v-0.5h57v0.5c0,12.958 10.542,23.5 23.5,23.5 6.177,0 11.801-2.399 16-6.31 4.199,3.911 9.823,6.31 16,6.31s11.801-2.399 16-6.31c4.199,3.911 9.823,6.31 16,6.31s11.801-2.399 16-6.31c4.199,3.911 9.823,6.31 16,6.31 12.958,0 23.5-10.542 23.5-23.5v-0.5h41v49h-305zm232-64.5c0-4.687 3.813-8.5 8.5-8.5s8.5,3.813 8.5,8.5v16c0,4.687-3.813,8.5-8.5,8.5s-8.5-3.813-8.5-8.5v-16zm8.5-23.5c-6.177,0-11.801,2.399-16,6.31-4.199-3.911-9.823-6.31-16-6.31s-11.801,2.399-16,6.31c-4.199-3.911-9.823-6.31-16-6.31s-11.801,2.399-16,6.31c-4.199-3.911-9.823-6.31-16-6.31-12.958,0-23.5,10.542-23.5,23.5v0.5h-57v-0.5c0-12.958-10.542-23.5-23.5-23.5s-23.5,10.542-23.5,23.5v0.5h-17v-65h49v0.5c0,12.958 10.542,23.5 23.5,23.5s23.5-10.542 23.5-23.5v-0.5h57v0.5c0,12.958 10.542,23.5 23.5,23.5 6.177,0 11.801-2.399 16-6.31 4.199,3.911 9.823,6.31 16,6.31 12.958,0 23.5-10.542 23.5-23.5v-0.5h73v65h-41v-0.5c0-12.958-10.542-23.5-23.5-23.5zm-40.5,23.5c0-4.687 3.813-8.5 8.5-8.5s8.5,3.813 8.5,8.5v16c0,4.687-3.813,8.5-8.5,8.5s-8.5-3.813-8.5-8.5v-16zm-32,0c0-4.687 3.813-8.5 8.5-8.5s8.5,3.813 8.5,8.5v16c0,4.687-3.813,8.5-8.5,8.5s-8.5-3.813-8.5-8.5v-16zm-32,0c0-4.687 3.813-8.5 8.5-8.5s8.5,3.813 8.5,8.5v16c0,4.687-3.813,8.5-8.5,8.5s-8.5-3.813-8.5-8.5v-16zm-104,0c0-4.687 3.813-8.5 8.5-8.5s8.5,3.813 8.5,8.5v16c0,4.687-3.813,8.5-8.5,8.5s-8.5-3.813-8.5-8.5v-16zm0-231.98c0-0.006 0.001-0.013 0.001-0.019s-0.001-0.014-0.001-0.02v-7.981c0-4.687 3.813-8.5 8.5-8.5s8.5,3.813 8.5,8.5v16c0,4.687-3.813,8.5-8.5,8.5s-8.5-3.813-8.5-8.5v-7.98zm8.5,31.48c12.958,0 23.5-10.542 23.5-23.5v-0.5h121v0.5c0,12.958 10.542,23.5 23.5,23.5 6.177,0 11.801-2.399 16-6.31 4.199,3.911 9.823,6.31 16,6.31 12.958,0 23.5-10.542 23.5-23.5v-0.5h41v65h-209v-0.5c0-12.958-10.542-23.5-23.5-23.5-6.177,0-11.801,2.399-16,6.31-4.199-3.911-9.823-6.31-16-6.31-12.958,0-23.5,10.542-23.5,23.5v0.5h-17v-65h17v0.5c0,12.958 10.542,23.5 23.5,23.5zm176.5-23.5c0,4.687-3.813,8.5-8.5,8.5s-8.5-3.813-8.5-8.5v-16c0-4.687 3.813-8.5 8.5-8.5s8.5,3.813 8.5,8.5v16zm32-8.058c0,0.02-0.003,0.039-0.003,0.058s0.003,0.038 0.003,0.058v7.942c0,4.687-3.813,8.5-8.5,8.5s-8.5-3.813-8.5-8.5v-16c0-4.687 3.813-8.5 8.5-8.5s8.5,3.813 8.5,8.5v7.942zm-49,152.058c0-4.687 3.813-8.5 8.5-8.5s8.5,3.813 8.5,8.5v16c0,4.687-3.813,8.5-8.5,8.5s-8.5-3.813-8.5-8.5v-16zm8.5-23.5c-6.177,0-11.801,2.399-16,6.31-4.199-3.911-9.823-6.31-16-6.31-12.958,0-23.5,10.542-23.5,23.5v0.5h-57v-0.5c0-12.958-10.542-23.5-23.5-23.5s-23.5,10.542-23.5,23.5v0.5h-49v-65h17v0.5c0,12.958 10.542,23.5 23.5,23.5 6.177,0 11.801-2.399 16-6.31 4.199,3.911 9.823,6.31 16,6.31 12.958,0 23.5-10.542 23.5-23.5v-0.5h209v65h-73v-0.5c0-12.958-10.542-23.5-23.5-23.5zm-40.5,23.5c0-4.687 3.813-8.5 8.5-8.5s8.5,3.813 8.5,8.5v16c0,4.687-3.813,8.5-8.5,8.5s-8.5-3.813-8.5-8.5v-16zm-104,0c0-4.687 3.813-8.5 8.5-8.5s8.5,3.813 8.5,8.5v16c0,4.687-3.813,8.5-8.5,8.5s-8.5-3.813-8.5-8.5v-16zm-15-64c0,4.687-3.813,8.5-8.5,8.5s-8.5-3.813-8.5-8.5v-16c0-4.687 3.813-8.5 8.5-8.5s8.5,3.813 8.5,8.5v16zm32-8.058c0,0.02-0.003,0.038-0.003,0.058s0.003,0.038 0.003,0.058v7.942c0,4.687-3.813,8.5-8.5,8.5s-8.5-3.813-8.5-8.5v-16c0-4.687 3.813-8.5 8.5-8.5s8.5,3.813 8.5,8.5v7.942zm224-87.442h-41v-0.5c0-12.958-10.542-23.5-23.5-23.5-6.177,0-11.801,2.399-16,6.31-4.199-3.911-9.823-6.31-16-6.31-12.958,0-23.5,10.542-23.5,23.5v0.5h-121v-0.5c0-12.958-10.542-23.5-23.5-23.5s-23.5,10.542-23.5,23.5v0.5h-17v-49h305v49zm0-81v17h-305v-17h305zm-353-15.5c0-0.276 0.225-0.5 0.5-0.5h32c0.275,0 0.5,0.224 0.5,0.5v400.5h-33v-400.5zm417,432c0,0.276-0.225,0.5-0.5,0.5h-432c-0.275,0-0.5-0.224-0.5-0.5v-16c0-0.276 0.225-0.5 0.5-0.5h432c0.275,0 0.5,0.224 0.5,0.5v16z"/>
</svg>